<svg id="Component_4_1" data-name="Component 4 – 1" xmlns="http://www.w3.org/2000/svg" width="22" height="22" viewBox="0 0 22 22">
  <path id="Path_38" data-name="Path 38" d="M21,32A11,11,0,1,0,10,21,11,11,0,0,0,21,32Z" transform="translate(-10 -10)" fill="#fff" fill-rule="evenodd"/>
  <path id="Oval-1" d="M9.444,18.444a9,9,0,1,0-9-9A9,9,0,0,0,9.444,18.444Z" transform="translate(1.556 1.556)" fill="#00c48c"/>
  <path id="Path" d="M6.62.569a.662.662,0,0,1,.936.936L3.586,5.475a.662.662,0,0,1-.936,0L.444,3.269a.662.662,0,1,1,.936-.936L3.118,4.071Z" transform="translate(7.105 7.798)" fill="#FFFFFF"/>
</svg>
