<svg width="22" height="22" viewBox="0 0 22 22" fill="none" xmlns="http://www.w3.org/2000/svg">
	<path
		d="M11.0353 16.4283C8.04379 16.4283 5.61867 14.0032 5.61867 11.0117C5.61867 8.02012 8.04379 5.595 11.0353 5.595C14.0269 5.595 16.452 8.02012 16.452 11.0117C16.452 14.0032 14.0269 16.4283 11.0353 16.4283ZM11.0353 14.9283C13.1984 14.9283 14.952 13.1748 14.952 11.0117C14.952 8.84855 13.1984 7.095 11.0353 7.095C8.87222 7.095 7.11867 8.84855 7.11867 11.0117C7.11867 13.1748 8.87222 14.9283 11.0353 14.9283ZM21.75 10.196V11.8032C21.751 12.5106 21.273 13.129 20.5882 13.3061L19.3815 13.6184C19.2249 14.1216 19.0229 14.6095 18.778 15.0761L19.4096 16.1487C19.7681 16.7575 19.6696 17.5318 19.17 18.0313L18.0327 19.1687C17.5331 19.6683 16.7589 19.7668 16.1501 19.4083L15.0774 18.7767C14.6218 19.0157 14.1459 19.2138 13.6553 19.3687L13.3402 20.5875C13.1635 21.2719 12.5461 21.7501 11.8393 21.75H10.2308C9.52415 21.7498 8.90713 21.2717 8.73035 20.587L8.41923 19.3785C7.92357 19.2236 7.44276 19.0246 6.98258 18.784L5.87693 19.4353C5.26813 19.7938 4.49391 19.6953 3.99434 19.1957L2.85701 18.0583C2.35741 17.5588 2.25887 16.7845 2.6171 16.1763L3.26641 15.0717C3.02473 14.6101 2.82502 14.1277 2.66967 13.6304L1.4125 13.3049C0.72833 13.1282 0.250233 12.5112 0.25 11.8043V10.1961C0.249938 9.48922 0.728097 8.87186 1.41216 8.69524L2.68604 8.36569C2.83761 7.89065 3.02974 7.42951 3.2603 6.98739L2.59041 5.84993C2.23187 5.24113 2.33041 4.46691 2.83 3.96734L3.96732 2.83001C4.46691 2.33041 5.24113 2.23187 5.84987 2.59038L6.98753 3.26024C7.44165 3.02322 7.91583 2.82678 8.40452 2.67322L8.73048 1.4125C8.90713 0.72833 9.52415 0.250233 10.231 0.25H11.8393C12.5461 0.249938 13.1635 0.728097 13.3402 1.41258L13.6673 2.6802C14.1513 2.83364 14.621 3.02915 15.0709 3.26451L16.1751 2.61541C16.7839 2.25687 17.5581 2.35541 18.0577 2.855L19.1947 3.99199C19.6943 4.49157 19.7928 5.2658 19.4343 5.87453L18.7832 6.98026C19.0176 7.42866 19.2124 7.89666 19.3654 8.37892L20.5877 8.69521C21.272 8.87199 21.7501 9.48929 21.75 10.196ZM20.2125 10.1475L18.5761 9.72409C18.3129 9.65598 18.1072 9.4508 18.0384 9.1878C17.8697 8.54293 17.6123 7.9246 17.2735 7.35056C17.1348 7.11561 17.1346 6.8239 17.273 6.5888L18.1417 5.1134C18.1533 5.09377 18.1501 5.06879 18.134 5.05266L16.997 3.91565C16.9809 3.89954 16.9559 3.89636 16.9357 3.90823L15.4614 4.7749C15.2263 4.9131 14.9347 4.91279 14.6999 4.77409C14.1246 4.43428 13.5048 4.17621 12.8584 4.00731C12.5951 3.93852 12.3898 3.73255 12.3218 3.46908L11.8878 1.7875C11.8821 1.76542 11.8622 1.75 11.8393 1.75H10.2312C10.2085 1.75001 10.1885 1.76543 10.1828 1.78774L9.74946 3.46374C9.68119 3.72775 9.47501 3.93391 9.21099 4.00214C8.56022 4.17032 7.93621 4.42882 7.35716 4.77012C7.12227 4.90857 6.83075 4.90863 6.59579 4.77029L5.08874 3.88292C5.0691 3.87136 5.04412 3.87454 5.028 3.89066L3.89065 5.02801C3.87454 5.04412 3.87136 5.0691 3.88292 5.08873L4.77025 6.5954C4.90858 6.83027 4.90858 7.12171 4.77026 7.35659C4.43526 7.92544 4.18009 8.53766 4.01193 9.17605C3.94279 9.4385 3.73726 9.64312 3.4745 9.7111L1.7875 10.1475C1.76542 10.1532 1.75 10.1731 1.75 10.196V11.8041C1.75001 11.8269 1.76543 11.8468 1.78802 11.8526L3.46135 12.286C3.7257 12.3544 3.93195 12.5611 3.99981 12.8256C4.16872 13.484 4.43002 14.1152 4.77595 14.7003C4.91479 14.9352 4.91515 15.2269 4.7769 15.4621L3.90992 16.9369C3.89836 16.9566 3.90154 16.9815 3.91766 16.9977L5.05501 18.135C5.07112 18.1511 5.0961 18.1543 5.11569 18.1428L6.59103 17.2738C6.82619 17.1353 7.11803 17.1354 7.35303 17.2742C7.93731 17.6192 8.56743 17.8799 9.22469 18.0485C9.48957 18.1165 9.69648 18.3232 9.76465 18.588L10.1829 20.2125C10.1885 20.2346 10.2085 20.25 10.231 20.25H11.8394C11.8622 20.25 11.8821 20.2346 11.8879 20.2122L12.3102 18.5789C12.3784 18.3153 12.5841 18.1093 12.8476 18.0408C13.5 17.8711 14.1254 17.6107 14.7054 17.2671C14.9405 17.1278 15.2327 17.1274 15.4682 17.266L16.9113 18.1157C16.9309 18.1273 16.9559 18.1241 16.972 18.108L18.1093 16.9707C18.1255 16.9545 18.1286 16.9296 18.117 16.9099L17.2674 15.4669C17.1287 15.2314 17.1291 14.9391 17.2685 14.7039C17.6178 14.1146 17.8812 13.4783 18.0506 12.8145C18.1183 12.5495 18.3247 12.3424 18.5894 12.2739L20.2125 11.8539C20.2346 11.8482 20.25 11.8282 20.25 11.8043V10.1959C20.25 10.1731 20.2346 10.1532 20.2125 10.1475Z"
		fill="#DBDEE1" />
</svg>