<svg xmlns="http://www.w3.org/2000/svg" xmlns:xlink="http://www.w3.org/1999/xlink" width="145" height="159" viewBox="0 0 145 159">
  <defs>
    <clipPath id="clip-path">
      <rect id="Rettangolo_172" data-name="Rettangolo 172" width="145" height="159" fill="#fff"/>
    </clipPath>
  </defs>
  <g id="logo_1" data-name="logo 1" clip-path="url(#clip-path)">
    <path id="Tracciato_680" data-name="Tracciato 680" d="M117.386,46.638v46.12a6.8,6.8,0,0,1-6.81,6.793H100.425L85.281,116.322a2.6,2.6,0,0,1-4.5-1.727V99.546H35.592a6.8,6.8,0,0,1-6.81-6.7l-.562-46.832a6.8,6.8,0,0,1,1.99-4.888L67.628,3.774a6.815,6.815,0,0,1,9.631,0l38.132,38.057a6.789,6.789,0,0,1,1.994,4.806Z" fill="#fff"/>
    <path id="Tracciato_681" data-name="Tracciato 681" d="M83.365,118.961a4.444,4.444,0,0,1-1.584-.3,4.32,4.32,0,0,1-2.8-4.073V101.333H35.592a8.619,8.619,0,0,1-8.6-8.49l-.567-46.819a8.627,8.627,0,0,1,2.518-6.171L66.365,2.509a8.618,8.618,0,0,1,12.158,0l38.132,38.057a8.521,8.521,0,0,1,2.523,6.046v46.12a8.6,8.6,0,0,1-8.6,8.581h-9.355L86.6,117.492a4.328,4.328,0,0,1-3.232,1.469ZM72.444,3.571A5.007,5.007,0,0,0,68.9,5.035L31.478,42.38a5.025,5.025,0,0,0-1.471,3.6l.567,46.832a5.031,5.031,0,0,0,5.019,4.949H82.56V114.6a.792.792,0,0,0,1.38.531L99.629,97.775h10.947a5.018,5.018,0,0,0,5.019-5.009V46.638a4.957,4.957,0,0,0-1.471-3.541L75.992,5.035a5.007,5.007,0,0,0-3.548-1.464Z" fill="#34558b"/>
    <path id="Tracciato_682" data-name="Tracciato 682" d="M73.85,67.08c-.03-5.722-3.838-9.5-9.592-9.5-3.293-.022-6.585,0-9.882,0-5.824.026-9.623,3.791-9.644,9.591V84.1c0,2.012.536,2.552,2.518,2.556H71.284c2.025,0,2.57-.531,2.575-2.5C73.859,78.446,73.876,72.763,73.85,67.08Z" fill="#7abb63"/>
    <path id="Tracciato_683" data-name="Tracciato 683" d="M59.875,54.195a10.827,10.827,0,1,0-4.155-.807A10.854,10.854,0,0,0,59.875,54.195Z" fill="#51ade1"/>
    <path id="Tracciato_684" data-name="Tracciato 684" d="M99.993,70.47c0-4.7-3.154-7.8-7.883-7.825H83.988c-4.79.022-7.914,3.118-7.931,7.881V84.44c0,1.654.433,2.1,2.073,2.1H97.886c1.661,0,2.112-.432,2.115-2.06C100,79.815,100.014,75.138,99.993,70.47Z" fill="#f8b133"/>
    <path id="Tracciato_685" data-name="Tracciato 685" d="M88.063,59.437a8.888,8.888,0,1,0-3.418-.658A8.925,8.925,0,0,0,88.063,59.437Z" fill="#ea5c47"/>
    <path id="Tracciato_686" data-name="Tracciato 686" d="M24.416,124.868v33.3H17.359v-3.519a10.377,10.377,0,0,1-3.293,3.269A7.807,7.807,0,0,1,10,159a9.124,9.124,0,0,1-7.3-3.161,14.507,14.507,0,0,1,0-16.876,8.78,8.78,0,0,1,7.035-3.187,8.958,8.958,0,0,1,4.487.989,8.72,8.72,0,0,1,3.081,3.316c-.087-.514-.143-1.1-.19-1.753s-.065-1.365-.065-2.12v-11.34Zm-6.8,22.455a5.675,5.675,0,0,0-1.346-3.994,4.7,4.7,0,0,0-3.656-1.46,4.7,4.7,0,0,0-3.661,1.5,6.691,6.691,0,0,0,0,8,4.663,4.663,0,0,0,3.665,1.451,4.7,4.7,0,0,0,3.656-1.46,5.711,5.711,0,0,0,1.346-4.011Z" fill="#fcfcfd"/>
    <path id="Tracciato_687" data-name="Tracciato 687" d="M30.331,158.166V136.48H38v21.686Zm-.4-28.462a3.971,3.971,0,0,1,1.242-2.953,4.31,4.31,0,0,1,6,0,3.979,3.979,0,0,1,1.22,2.975,4.244,4.244,0,0,1-2.611,3.939,4.277,4.277,0,0,1-1.629.328,4.038,4.038,0,0,1-2.972-1.266,4.141,4.141,0,0,1-1.251-3.023Z" fill="#fcfcfd"/>
    <path id="Tracciato_688" data-name="Tracciato 688" d="M67.265,124.868v33.3H60.2v-3.519a10.333,10.333,0,0,1-3.288,3.269A7.806,7.806,0,0,1,52.852,159a9.124,9.124,0,0,1-7.3-3.161,12.65,12.65,0,0,1-2.722-8.5,12.521,12.521,0,0,1,2.7-8.373,8.79,8.79,0,0,1,7.04-3.187,8.959,8.959,0,0,1,4.487.989,8.754,8.754,0,0,1,3.085,3.316c-.086-.514-.147-1.1-.19-1.753s-.065-1.365-.065-2.12v-11.34Zm-6.8,22.455a5.675,5.675,0,0,0-1.346-3.994,5.316,5.316,0,0,0-7.317,0,6.691,6.691,0,0,0,0,8,5.145,5.145,0,0,0,7.321-.008,5.623,5.623,0,0,0,1.346-3.973Z" fill="#fcfcfd"/>
    <path id="Tracciato_689" data-name="Tracciato 689" d="M74.131,124.769h5.127v9.172c0,1.347.035,2.319.1,2.9a5.6,5.6,0,0,0,.351,1.476,2.162,2.162,0,0,0,1.03,1.1,4.412,4.412,0,0,0,3.583,0,2.19,2.19,0,0,0,1.034-1.1,5.44,5.44,0,0,0,.35-1.476c.065-.583.1-1.555.1-2.9v-9.172h5.123v9.962a20.265,20.265,0,0,1-.372,4.582A6.207,6.207,0,0,1,89.3,141.83a5.878,5.878,0,0,1-2.657,1.727,15.049,15.049,0,0,1-8.221,0,5.942,5.942,0,0,1-2.661-1.727,6.31,6.31,0,0,1-1.259-2.517,20.158,20.158,0,0,1-.381-4.582v-9.962Z" fill="#7abb63"/>
    <path id="Tracciato_690" data-name="Tracciato 690" d="M99.672,133.263h.983a4.79,4.79,0,0,0,2.6-.514,1.946,1.946,0,0,0,.735-1.728,1.905,1.905,0,0,0-.722-1.688,4.765,4.765,0,0,0-2.553-.5h-1.03Zm0,10.364H94.839V124.769h5.387a21.512,21.512,0,0,1,4.44.31,5.244,5.244,0,0,1,2.163,1.054,5.578,5.578,0,0,1,1.592,2.159,7.255,7.255,0,0,1,.545,2.876,7.493,7.493,0,0,1-.54,2.967,5.135,5.135,0,0,1-1.6,2.1,5.03,5.03,0,0,1-1.887.89,15.755,15.755,0,0,1-3.461.272h-1.8Z" fill="#7abb63"/>
    <path id="Tracciato_691" data-name="Tracciato 691" d="M74.577,158.015l1.5-11.391h6.4l-.2,1.61H77.64l-.368,2.864h4.617l-.212,1.6h-4.63l-.688,5.32Z" fill="#fcfcfd"/>
    <path id="Tracciato_692" data-name="Tracciato 692" d="M80.82,158.015l6.611-11.845L91.6,158.015H89.746l-.926-2.69H84.273l-1.5,2.69Zm4.171-4.21h3.336l-.865-2.816c-.043-.133-.087-.315-.134-.535s-.1-.518-.169-.864c-.117.268-.229.527-.342.765s-.221.47-.329.682Z" fill="#fcfcfd"/>
    <path id="Tracciato_693" data-name="Tracciato 693" d="M102.848,152.22v-.937a5.878,5.878,0,0,1,.048-.643,3.81,3.81,0,0,1-.277.639c-.117.216-.285.492-.51.825l-4.1,6.378-2.362-6.357c-.056-.142-.121-.328-.186-.548s-.16-.531-.277-.929a7.859,7.859,0,0,1-.325,1.507v.035l-1.731,5.834H91.309l3.747-11.875,2.769,7.38c.143.362.255.673.342.937s.16.518.229.773q.2-.432.433-.864c.156-.289.329-.579.515-.864l4.811-7.341.524,11.876h-1.77Z" fill="#fcfcfd"/>
    <path id="Tracciato_694" data-name="Tracciato 694" d="M106.327,158.015l1.5-11.391h1.822l-1.519,11.391Z" fill="#fcfcfd"/>
    <path id="Tracciato_695" data-name="Tracciato 695" d="M121.008,149.845a5,5,0,0,0-1.675-1.438,4.673,4.673,0,0,0-3.764-.142,4.082,4.082,0,0,0-1.406.95,5.018,5.018,0,0,0-1.056,1.6,4.91,4.91,0,0,0-.363,1.87,3.8,3.8,0,0,0,3.976,4,3.676,3.676,0,0,0,2.393-.79,3.029,3.029,0,0,0,1.129-2.068h-2.955l.194-1.615h4.877a6.206,6.206,0,0,1-1.545,4.452,5.525,5.525,0,0,1-4.2,1.632,5.589,5.589,0,0,1-4.1-1.52,5.375,5.375,0,0,1-1.549-4.029,6.955,6.955,0,0,1,.485-2.613,5.845,5.845,0,0,1,1.4-2.072,6.019,6.019,0,0,1,2.029-1.3,6.9,6.9,0,0,1,2.479-.432,6.375,6.375,0,0,1,2.73.544,6.478,6.478,0,0,1,2.164,1.767Z" fill="#fcfcfd"/>
    <path id="Tracciato_696" data-name="Tracciato 696" d="M123.7,158.015l1.5-11.391h1.791l-1.263,9.643h4.266l-.242,1.748Z" fill="#fcfcfd"/>
    <path id="Tracciato_697" data-name="Tracciato 697" d="M131.223,158.015l1.5-11.391h1.844l-1.519,11.391Z" fill="#fcfcfd"/>
    <path id="Tracciato_698" data-name="Tracciato 698" d="M134.218,158.015l6.611-11.845L145,158.015h-1.856l-.926-2.69H137.67l-1.505,2.69Zm4.171-4.21h3.336l-.866-2.816c-.039-.133-.082-.315-.13-.535s-.1-.518-.173-.864c-.112.268-.225.527-.337.765s-.225.47-.333.682Z" fill="#fcfcfd"/>
  </g>
</svg>
